<?xml version="1.0" encoding="UTF-8" standalone="no"?>
<svg
   width="40"
   height="28"
   viewBox="0 0 40 28"
   version="1.1"
   id="svg2244"
   xmlns="http://www.w3.org/2000/svg"
   xmlns:svg="http://www.w3.org/2000/svg">
  <defs
     id="defs2" />
  <path
     id="rect4"
     style="fill:#000000;fill-opacity:1"
     d="M 0,0 V 14 H 40 V 0 Z M 1,1 H 2 3 4 5 6 7 8 9 V 2 3 H 8 7 6 5 4 3 v 1 1 1 1 1 1 1 1 h 1 1 1 1 1 1 v 1 1 H 8 7 6 5 4 3 2 1 V 12 11 10 9 8 7 6 5 4 3 2 Z m 10,0 h 1 1 1 1 1 1 1 1 v 1 1 h -1 -1 -1 v 1 1 1 1 1 1 1 1 1 1 H 15 14 V 12 11 10 9 8 7 6 5 4 3 H 13 12 11 V 2 Z m 10,0 h 1 1 1 1 1 1 1 1 v 1 1 h -1 -1 -1 -1 -1 -1 v 1 1 1 1 1 1 1 1 h 1 1 1 1 1 1 v 1 1 H 28 27 26 25 24 23 22 21 V 12 11 10 9 8 7 6 5 4 3 2 Z m 10,0 h 1 1 v 1 1 1 1 1 1 1 1 1 1 h 1 1 1 1 1 1 v 1 1 H 38 37 36 35 34 33 32 31 V 12 11 10 9 8 7 6 5 4 3 2 Z" />
  <path
     id="rect86"
     style="fill:#f0d000;fill-opacity:1"
     d="M 1 1 L 1 2 L 1 3 L 1 4 L 1 5 L 1 6 L 1 7 L 1 8 L 1 9 L 1 10 L 1 11 L 1 12 L 1 13 L 2 13 L 3 13 L 4 13 L 5 13 L 6 13 L 7 13 L 8 13 L 9 13 L 9 12 L 9 11 L 8 11 L 7 11 L 6 11 L 5 11 L 4 11 L 3 11 L 3 10 L 3 9 L 3 8 L 3 7 L 3 6 L 3 5 L 3 4 L 3 3 L 4 3 L 5 3 L 6 3 L 7 3 L 8 3 L 9 3 L 9 2 L 9 1 L 8 1 L 7 1 L 6 1 L 5 1 L 4 1 L 3 1 L 2 1 L 1 1 z " />
  <path
     id="rect106"
     d="M 11 1 L 11 2 L 11 3 L 12 3 L 13 3 L 14 3 L 14 4 L 14 5 L 14 6 L 14 7 L 14 8 L 14 9 L 14 10 L 14 11 L 14 12 L 14 13 L 15 13 L 16 13 L 16 12 L 16 11 L 16 10 L 16 9 L 16 8 L 16 7 L 16 6 L 16 5 L 16 4 L 16 3 L 17 3 L 18 3 L 19 3 L 19 2 L 19 1 L 18 1 L 17 1 L 16 1 L 15 1 L 14 1 L 13 1 L 12 1 L 11 1 z "
     style="fill:#f0d000;fill-opacity:1" />
  <path
     id="rect126"
     d="M 21 1 L 21 2 L 21 3 L 21 4 L 21 5 L 21 6 L 21 7 L 21 8 L 21 9 L 21 10 L 21 11 L 21 12 L 21 13 L 22 13 L 23 13 L 24 13 L 25 13 L 26 13 L 27 13 L 28 13 L 29 13 L 29 12 L 29 11 L 28 11 L 27 11 L 26 11 L 25 11 L 24 11 L 23 11 L 23 10 L 23 9 L 23 8 L 23 7 L 23 6 L 23 5 L 23 4 L 23 3 L 24 3 L 25 3 L 26 3 L 27 3 L 28 3 L 29 3 L 29 2 L 29 1 L 28 1 L 27 1 L 26 1 L 25 1 L 24 1 L 23 1 L 22 1 L 21 1 z "
     style="fill:#f0d000;fill-opacity:1" />
  <path
     id="rect146"
     d="M 31 1 L 31 2 L 31 3 L 31 4 L 31 5 L 31 6 L 31 7 L 31 8 L 31 9 L 31 10 L 31 11 L 31 12 L 31 13 L 32 13 L 33 13 L 34 13 L 35 13 L 36 13 L 37 13 L 38 13 L 39 13 L 39 12 L 39 11 L 38 11 L 37 11 L 36 11 L 35 11 L 34 11 L 33 11 L 33 10 L 33 9 L 33 8 L 33 7 L 33 6 L 33 5 L 33 4 L 33 3 L 33 2 L 33 1 L 32 1 L 31 1 z "
     style="fill:#f0d000;fill-opacity:1" />
  <path
     id="rect1124"
     d="M 0,14 V 28 H 40 V 14 Z m 11,1 h 1 1 1 1 1 1 1 1 v 1 1 h -1 -1 -1 -1 -1 -1 v 1 1 1 1 1 1 1 1 h 1 1 1 1 1 1 v 1 1 h -1 -1 -1 -1 -1 -1 -1 -1 v -1 -1 -1 -1 -1 -1 -1 -1 -1 -1 -1 z m 10,0 h 1 1 1 1 1 1 1 1 v 1 1 h -1 -1 -1 -1 -1 -1 v 1 1 1 h 1 1 1 1 v 1 1 h -1 -1 -1 -1 v 1 1 1 1 1 h -1 -1 v -1 -1 -1 -1 -1 -1 -1 -1 -1 -1 -1 z m 10,0 h 1 1 v 1 1 1 1 1 1 1 1 h 1 v -1 h 1 1 v 1 h 1 v -1 -1 -1 -1 -1 -1 -1 -1 h 1 1 v 1 1 1 1 1 1 1 1 1 1 1 1 h -1 -1 v -1 h -1 v -1 h -1 -1 v 1 h -1 v 1 H 32 31 V 26 25 24 23 22 21 20 19 18 17 16 Z M 1,20 h 1 1 1 1 1 1 1 1 v 1 1 H 8 7 6 5 4 3 2 1 v -1 z"
     style="fill:#ff8200;fill-opacity:1" />
  <path
     id="rect1226"
     d="M 11 15 L 11 16 L 11 17 L 11 18 L 11 19 L 11 20 L 11 21 L 11 22 L 11 23 L 11 24 L 11 25 L 11 26 L 11 27 L 12 27 L 13 27 L 14 27 L 15 27 L 16 27 L 17 27 L 18 27 L 19 27 L 19 26 L 19 25 L 18 25 L 17 25 L 16 25 L 15 25 L 14 25 L 13 25 L 13 24 L 13 23 L 13 22 L 13 21 L 13 20 L 13 19 L 13 18 L 13 17 L 14 17 L 15 17 L 16 17 L 17 17 L 18 17 L 19 17 L 19 16 L 19 15 L 18 15 L 17 15 L 16 15 L 15 15 L 14 15 L 13 15 L 12 15 L 11 15 z "
     style="fill:#ffffff" />
  <path
     id="rect1246"
     style="fill:#ffffff;fill-opacity:1"
     d="M 21 15 L 21 16 L 21 17 L 21 18 L 21 19 L 21 20 L 21 21 L 21 22 L 21 23 L 21 24 L 21 25 L 21 26 L 21 27 L 22 27 L 23 27 L 23 26 L 23 25 L 23 24 L 23 23 L 23 22 L 24 22 L 25 22 L 26 22 L 27 22 L 27 21 L 27 20 L 26 20 L 25 20 L 24 20 L 23 20 L 23 19 L 23 18 L 23 17 L 24 17 L 25 17 L 26 17 L 27 17 L 28 17 L 29 17 L 29 16 L 29 15 L 28 15 L 27 15 L 26 15 L 25 15 L 24 15 L 23 15 L 22 15 L 21 15 z " />
  <path
     id="rect1266"
     d="M 31 15 L 31 16 L 31 17 L 31 18 L 31 19 L 31 20 L 31 21 L 31 22 L 31 23 L 31 24 L 31 25 L 31 26 L 31 27 L 32 27 L 33 27 L 33 26 L 34 26 L 34 25 L 35 25 L 36 25 L 36 26 L 37 26 L 37 27 L 38 27 L 39 27 L 39 26 L 39 25 L 39 24 L 39 23 L 39 22 L 39 21 L 39 20 L 39 19 L 39 18 L 39 17 L 39 16 L 39 15 L 38 15 L 37 15 L 37 16 L 37 17 L 37 18 L 37 19 L 37 20 L 37 21 L 37 22 L 37 23 L 36 23 L 36 22 L 35 22 L 34 22 L 34 23 L 33 23 L 33 22 L 33 21 L 33 20 L 33 19 L 33 18 L 33 17 L 33 16 L 33 15 L 32 15 L 31 15 z "
     style="fill:#ffffff;fill-opacity:1" />
  <path
     id="rect1606"
     d="M 1 20 L 1 21 L 1 22 L 2 22 L 3 22 L 4 22 L 5 22 L 6 22 L 7 22 L 8 22 L 9 22 L 9 21 L 9 20 L 8 20 L 7 20 L 6 20 L 5 20 L 4 20 L 3 20 L 2 20 L 1 20 z "
     style="fill:#ffffff" />
</svg>
